<?xml version="1.0" encoding="UTF-8" standalone="no"?>
<!-- Created with Inkscape (http://www.inkscape.org/) -->

<svg
   width="879.99884mm"
   height="80.000214mm"
   viewBox="0 0 879.99884 80.000213"
   version="1.1"
   id="svg1"
   xml:space="preserve"
   sodipodi:docname="logo.svg"
   inkscape:version="1.4 (86a8ad7, 2024-10-11)"
   xmlns:inkscape="http://www.inkscape.org/namespaces/inkscape"
   xmlns:sodipodi="http://sodipodi.sourceforge.net/DTD/sodipodi-0.dtd"
   xmlns="http://www.w3.org/2000/svg"
   xmlns:svg="http://www.w3.org/2000/svg"><sodipodi:namedview
     id="namedview1"
     pagecolor="#505050"
     bordercolor="#ffffff"
     borderopacity="1"
     inkscape:showpageshadow="0"
     inkscape:pageopacity="0"
     inkscape:pagecheckerboard="1"
     inkscape:deskcolor="#505050"
     inkscape:document-units="mm"
     inkscape:zoom="0.36320124"
     inkscape:cx="2042.9446"
     inkscape:cy="156.93779"
     inkscape:window-width="1274"
     inkscape:window-height="1350"
     inkscape:window-x="2075"
     inkscape:window-y="593"
     inkscape:window-maximized="0"
     inkscape:current-layer="layer2" /><defs
     id="defs1" /><g
     id="layer2"
     transform="translate(1.4396637,-36.908792)"><path
       style="font-weight:600;font-size:101.132px;font-family:Montserrat;-inkscape-font-specification:'Montserrat Semi-Bold';stroke-width:1.43349"
       d="M 103.23736,114.42139 V 54.753504 H 79.774737 v -11.12452 h 60.072413 v 11.12452 h -23.46263 v 59.667886 z m 44.03184,0 V 60.416897 h 12.03471 v 14.866404 l -1.41585,-4.348676 q 2.42717,-5.461128 7.5849,-8.292824 5.25887,-2.831696 13.04603,-2.831696 v 12.034708 q -0.80905,-0.202264 -1.51698,-0.202264 -0.70792,-0.101132 -1.41585,-0.101132 -7.18037,0 -11.42791,4.247544 -4.24755,4.146412 -4.24755,12.439237 v 26.193192 z m 71.39388,0 v -10.92226 l -0.70793,-2.32604 V 82.059146 q 0,-5.562261 -3.33735,-8.596221 -3.33736,-3.135092 -10.1132,-3.135092 -4.55094,0 -9.00075,1.415848 -4.34868,1.415848 -7.38264,3.944148 l -4.95547,-9.203012 q 4.34868,-3.337356 10.31547,-4.955468 6.06792,-1.719244 12.54037,-1.719244 11.73131,0 18.10263,5.663392 6.47244,5.56226 6.47244,17.293573 v 31.65432 z m -16.99018,0.70792 q -6.06792,0 -10.61886,-2.02264 -4.55094,-2.12377 -7.07924,-5.76452 -2.42717,-3.74189 -2.42717,-8.39396 0,-4.55094 2.12377,-8.191692 2.22491,-3.640752 7.18038,-5.764524 4.95546,-2.123772 13.14716,-2.123772 h 15.67546 v 8.393956 h -14.76527 q -6.47245,0 -8.69736,2.123772 -2.2249,2.02264 -2.2249,5.0566 0,3.43849 2.73056,5.46113 2.73057,2.02264 7.5849,2.02264 4.65208,0 8.29283,-2.12377 3.74188,-2.12378 5.35999,-6.270188 l 2.12378,7.584898 q -1.82038,4.75321 -6.57358,7.38264 -4.65208,2.62943 -11.83245,2.62943 z m 45.10491,-0.70792 V 60.416897 h 12.03471 v 14.563008 l -2.12377,-4.449808 q 2.83169,-5.157732 8.19169,-7.888296 5.46113,-2.831696 12.54037,-2.831696 6.47245,0 11.52905,2.5283 5.15773,2.5283 8.09056,7.787164 2.93282,5.157732 2.93282,13.349425 v 30.946396 h -12.6415 V 85.093106 q 0,-7.180373 -3.43848,-10.719993 -3.33736,-3.53962 -9.40528,-3.53962 -4.44981,0 -7.8883,1.820376 -3.43849,1.820376 -5.35999,5.461128 -1.82038,3.53962 -1.82038,9.000749 v 27.305644 z m 85.96214,0.70792 q -6.77584,0 -13.04603,-1.71924 -6.16905,-1.82038 -9.8098,-4.34868 l 4.85433,-9.60754 q 3.64076,2.32604 8.69736,3.84302 5.0566,1.51698 10.1132,1.51698 5.96678,0 8.59622,-1.61812 2.73056,-1.61811 2.73056,-4.348672 0,-2.224904 -1.82038,-3.337356 -1.82037,-1.213584 -4.7532,-1.820376 -2.93283,-0.606792 -6.57358,-1.112452 -3.53962,-0.50566 -7.18037,-1.314716 -3.53962,-0.910188 -6.47245,-2.5283 -2.93283,-1.719244 -4.7532,-4.55094 -1.82038,-2.831697 -1.82038,-7.483769 0,-5.157732 2.93283,-8.899616 2.93283,-3.843016 8.19169,-5.865656 5.36,-2.123772 12.6415,-2.123772 5.46113,0 11.02339,1.213584 5.56226,1.213584 9.20301,3.438488 l -4.85433,9.60754 q -3.84302,-2.326036 -7.78717,-3.135092 -3.84302,-0.910188 -7.68603,-0.910188 -5.76453,0 -8.59622,1.719244 -2.73057,1.719244 -2.73057,4.348676 0,2.427168 1.82038,3.640752 1.82038,1.213584 4.7532,1.921508 2.93283,0.707925 6.47245,1.213585 3.64075,0.404528 7.18037,1.314716 3.53962,0.910188 6.47245,2.5283 3.03396,1.51698 4.85434,4.348676 1.82038,2.831696 1.82038,7.382636 0,5.0566 -3.03396,8.79848 -2.93283,3.74189 -8.39396,5.86566 -5.46113,2.02264 -13.04603,2.02264 z m 60.17348,0 q -8.49509,0 -15.1698,-3.53962 -6.57358,-3.64075 -10.31547,-9.91094 -3.74188,-6.27018 -3.74188,-14.259608 0,-8.090561 3.74188,-14.259613 3.74189,-6.270184 10.31547,-9.809804 6.67471,-3.53962 15.1698,-3.53962 7.88829,0 13.85508,3.236224 6.06792,3.135092 9.20301,9.304144 l -9.70867,5.663392 q -2.42717,-3.843016 -5.96679,-5.663392 -3.43848,-1.820376 -7.48377,-1.820376 -4.65207,0 -8.39395,2.02264 -3.74189,2.02264 -5.86566,5.865656 -2.12377,3.741885 -2.12377,9.000749 0,5.258864 2.12377,9.10188 2.12377,3.741888 5.86566,5.764528 3.74188,2.02264 8.39395,2.02264 4.04529,0 7.48377,-1.82038 3.53962,-1.82038 5.96679,-5.663392 l 9.70867,5.663392 q -3.13509,6.06792 -9.20301,9.40528 -5.96679,3.23622 -13.85508,3.23622 z m 58.5948,0 q -9.00075,0 -15.7766,-3.53962 -6.67471,-3.64075 -10.41659,-9.91094 -3.64076,-6.27018 -3.64076,-14.259608 0,-8.090561 3.53962,-14.259613 3.64076,-6.270184 9.91094,-9.809804 6.37132,-3.53962 14.46188,-3.53962 7.88829,0 14.05735,3.438488 6.16905,3.438488 9.70867,9.708672 3.53962,6.270184 3.53962,14.765273 0,0.809056 -0.10113,1.820376 0,1.01132 -0.10114,1.921508 h -45.00374 v -8.393956 h 38.32903 l -4.95547,2.629432 q 0.10114,-4.652073 -1.9215,-8.191693 -2.02264,-3.53962 -5.56226,-5.56226 -3.43849,-2.02264 -7.98943,-2.02264 -4.65207,0 -8.19169,2.02264 -3.43849,2.02264 -5.46113,5.663392 -1.92151,3.53962 -1.92151,8.393957 v 2.02264 q 0,4.854336 2.2249,8.59622 2.22491,3.741886 6.27019,5.764526 4.04528,2.02264 9.30414,2.02264 4.55094,0 8.19169,-1.41585 3.64076,-1.41585 6.47245,-4.449808 l 6.77585,7.787168 q -3.64076,4.24754 -9.20302,6.57358 -5.46112,2.2249 -12.54036,2.2249 z m 37.51992,-0.70792 V 60.416897 h 12.0347 v 14.563008 l -2.12377,-4.449808 q 2.8317,-5.157732 8.19169,-7.888296 5.46113,-2.831696 12.54037,-2.831696 6.47245,0 11.52905,2.5283 5.15773,2.5283 8.09056,7.787164 2.93283,5.157732 2.93283,13.349425 v 30.946396 h -12.6415 V 85.093106 q 0,-7.180373 -3.43849,-10.719993 -3.33736,-3.53962 -9.40528,-3.53962 -4.4498,0 -7.88829,1.820376 -3.43849,1.820376 -5.36,5.461128 -1.82037,3.53962 -1.82037,9.000749 v 27.305644 z m 85.96217,0.70792 q -6.77585,0 -13.04603,-1.71924 -6.16905,-1.82038 -9.80981,-4.34868 l 4.85434,-9.60754 q 3.64075,2.32604 8.69735,3.84302 5.0566,1.51698 10.1132,1.51698 5.96679,0 8.59622,-1.61812 2.73057,-1.61811 2.73057,-4.348672 0,-2.224904 -1.82038,-3.337356 -1.82038,-1.213584 -4.7532,-1.820376 -2.93283,-0.606792 -6.57358,-1.112452 -3.53962,-0.50566 -7.18038,-1.314716 -3.53962,-0.910188 -6.47244,-2.5283 -2.93283,-1.719244 -4.75321,-4.55094 -1.82037,-2.831697 -1.82037,-7.483769 0,-5.157732 2.93282,-8.899616 2.93283,-3.843016 8.1917,-5.865656 5.35999,-2.123772 12.6415,-2.123772 5.46112,0 11.02339,1.213584 5.56226,1.213584 9.20301,3.438488 l -4.85434,9.60754 q -3.84301,-2.326036 -7.78716,-3.135092 -3.84302,-0.910188 -7.68604,-0.910188 -5.76452,0 -8.59622,1.719244 -2.73056,1.719244 -2.73056,4.348676 0,2.427168 1.82038,3.640752 1.82037,1.213584 4.7532,1.921508 2.93283,0.707925 6.47245,1.213585 3.64075,0.404528 7.18037,1.314716 3.53962,0.910188 6.47245,2.5283 3.03396,1.51698 4.85434,4.348676 1.82037,2.831696 1.82037,7.382636 0,5.0566 -3.03396,8.79848 -2.93283,3.74189 -8.39395,5.86566 -5.46113,2.02264 -13.04603,2.02264 z m 35.3961,-0.70792 V 60.416897 h 12.6415 v 54.004493 z m 6.37132,-62.90411 q -3.53962,0 -5.86566,-2.224904 -2.2249,-2.224904 -2.2249,-5.359996 0,-3.236224 2.2249,-5.359996 2.32604,-2.224904 5.86566,-2.224904 3.53962,0 5.76452,2.123772 2.32604,2.02264 2.32604,5.157732 0,3.337356 -2.22491,5.663392 -2.2249,2.224904 -5.86565,2.224904 z m 47.12747,63.61203 q -8.29282,0 -14.76527,-3.53962 -6.47245,-3.64075 -10.21433,-9.91094 -3.74188,-6.27018 -3.74188,-14.259608 0,-8.090561 3.74188,-14.259613 3.74188,-6.270184 10.21433,-9.809804 6.47245,-3.53962 14.76527,-3.53962 8.39396,0 14.86641,3.53962 6.57358,3.53962 10.21433,9.708672 3.74189,6.169052 3.74189,14.360745 0,7.989428 -3.74189,14.259608 -3.64075,6.27019 -10.21433,9.91094 -6.47245,3.53962 -14.86641,3.53962 z m 0,-10.82112 q 4.65208,0 8.29283,-2.02264 3.64075,-2.02264 5.66339,-5.86566 2.12377,-3.843016 2.12377,-9.000748 0,-5.258864 -2.12377,-9.000749 -2.02264,-3.843016 -5.66339,-5.865656 -3.64075,-2.02264 -8.19169,-2.02264 -4.65208,0 -8.29283,2.02264 -3.53962,2.02264 -5.66339,5.865656 -2.12377,3.741885 -2.12377,9.000749 0,5.157732 2.12377,9.000748 2.12377,3.84302 5.66339,5.86566 3.64075,2.02264 8.19169,2.02264 z m 40.95855,10.1132 V 60.416897 h 12.03471 v 14.563008 l -2.12378,-4.449808 q 2.8317,-5.157732 8.1917,-7.888296 5.46113,-2.831696 12.54037,-2.831696 6.47244,0 11.52904,2.5283 5.15774,2.5283 8.09056,7.787164 2.93283,5.157732 2.93283,13.349425 v 30.946396 h -12.6415 V 85.093106 q 0,-7.180373 -3.43849,-10.719993 -3.33735,-3.53962 -9.40527,-3.53962 -4.44981,0 -7.8883,1.820376 -3.43849,1.820376 -5.36,5.461128 -1.82037,3.53962 -1.82037,9.000749 v 27.305644 z m 88.3892,0 31.85658,-70.792406 h 12.94489 l 31.95772,70.792406 H 856.2382 L 828.83142,50.607092 h 5.25887 l -27.30564,63.814298 z m 14.66414,-16.383388 3.53962,-10.315464 h 38.2279 l 3.53962,10.315464 z m 71.09585,16.383388 V 43.628984 h 13.14716 v 70.792406 z"
       id="text1"
       transform="scale(0.98477713,1.0154582)"
       aria-label="Transcension AI" /><path
       d="M 52.722685,111.07119 28.560315,82.602389 4.3979365,111.07119 M 52.722685,71.214859 28.560315,42.746074 4.3979365,71.214859"
       stroke="#000000"
       stroke-width="1.21052"
       stroke-linecap="round"
       stroke-linejoin="round"
       id="path1-4"
       style="display:inline;fill:none;stroke:#007acc;stroke-width:11.6752;stroke-dasharray:none;stroke-opacity:1" /></g></svg>
